<svg xmlns="http://www.w3.org/2000/svg" viewBox="0 0 407.06 407.07">
  <defs>
    <style>
      .cls-1 {
        fill: #042336;
      }

      .cls-2 {
        fill: #fff;
      }
    </style>
  </defs>
  <g id="Layer_2" data-name="Layer 2">
    <path class="cls-1" d="M195-8C82.78-8-8.53,83.27-8.53,195.51S82.78,399,195,399s203.53-91.3,203.53-203.52S307.22-8,195-8Z" transform="translate(8.53 8.03)"/>
  </g>
  <g id="Layer_1" data-name="Layer 1">
    <g>
      <g>
        <path class="cls-2" d="M165.48,95.49C164.87,96.9,160.6,107,160.6,107a5.23,5.23,0,0,1,3-.87c1.37.19,11.07,2.61,12.43,3s2.57.66,2.24,2.3-4,18.54-7,33.65l-.17,1.42c-.25,9.48,5.18,12,5.18,12a11.87,11.87,0,0,0,6.94-8.09c0,10.19,6.54,12.41,6.54,12.41s6.23-2.83,6.48-11.94c.21,9.78,6.52,11.94,6.52,11.94s6.35-2.87,6.48-12.2a10.66,10.66,0,0,0,7,7.88s5.25-3,5.18-12h0v-.1h0c-.07-.53-.17-1.58-.17-1.58-2.71-16-6.73-39.73-7.07-41.56a10,10,0,0,0-2.25-5.39,11.37,11.37,0,0,0-4.49-3.23c-6-2.56-15.48-4.21-19.56-4.47-2.5-.16-4.4.69-5,1.76a13.69,13.69,0,0,0-1,2.48L170.6,93.29C167.85,93,166.2,93.82,165.48,95.49Zm17.89,2.16s.52-1.13,1-2.2c-.1-.91,0-1.84,2.72-2,3.39-.18,14.78,2.59,17.32,3.8,3.64,1.74,4.87,3.4,5.28,5.89.53,3.2,6.09,38.41,6.09,38.41a25.71,25.71,0,0,1,.27,5.68,8.35,8.35,0,0,1-1.28,4.23A8.53,8.53,0,0,1,211,148a46.93,46.93,0,0,1-2.49-4.43,49.76,49.76,0,0,1-2,6.2c-1.68,4.3-3.86,5.58-3.86,5.58s-2.35-1.37-4.15-5.58c-1.38-3.22-2.36-6-2.36-6s-1,2.82-2.37,6c-1.8,4.21-4.15,5.58-4.15,5.58s-2.18-1.28-3.86-5.58a49.76,49.76,0,0,1-2-6.2,23.86,23.86,0,0,1-2.61,4.58,13.52,13.52,0,0,1-3.35,3.44,10.66,10.66,0,0,1-1.45-4.85,22.09,22.09,0,0,1,.36-5s5.73-30.76,6.14-33.13c.25-1.42,0-2.83-3.06-3.42s-8.82-1.66-10.6-2a2.49,2.49,0,0,0-2.13.82s.53-2,1-3.81c.56-2.3,1.41-3.19,3.52-3.1S183.37,97.65,183.37,97.65Z" transform="translate(8.53 8.03)"/>
        <polygon class="cls-2" points="200.44 107.23 202.68 106.09 207 105.66 194.5 103.14 195.02 104.33 193.69 107.03 200.44 107.23"/>
        <path class="cls-2" d="M343.54,196.18A147.45,147.45,0,0,0,222.4,51.07c-1.76-.22-3.77-.38-4.37.9-.3.67.06,1.29.62,1.86h0c.19.19.4.38.62.56h0c.6.48,1.41,1,2.48,1.75,4.85,3.34,13.42,9.63,17.51,19.23,3.84,9,5,21.31-3.9,37.57-7.41,13.64-14.58,22.91-12.88,33.88,2.19,14.1,19,16.67,27.8,16.84H141.93c8.85-.17,25.61-2.74,27.8-16.84,1.7-11-5.47-20.24-12.89-33.88C148,96.68,149.11,84.41,153,75.37c4.09-9.6,12.65-15.89,17.51-19.23,1.07-.74,1.87-1.27,2.48-1.75h0c.21-.18.43-.37.62-.56h0c.56-.57.93-1.19.62-1.86-.59-1.28-2.6-1.12-4.36-.9a147.43,147.43,0,0,0-92,233.14h0a37,37,0,0,0,8.69,8.15l.13.1.15.1.7.44c13.88,9.11,34.5,7,50.82-15.28-15.62,14.89-27.95,16.5-37.88,15-4.38-.67-12.66-4.82-15.82-10.89,13.41,2.29,29.09-3.26,42.48-13a1.92,1.92,0,0,1-.31.18l.37-.21c-17.88,8.86-31.68,11-41.07,7.88-5.83-2-12.44-8.06-14.36-14.78,12.81,4.91,29.28,2.16,44.22-5.06l-.67.22c.34-.12.67-.22,1-.35-18,5.16-33.31,5.59-41.8,1.13C69,255,63.62,248.24,62.82,241.3c11.71,6.84,28.48,6.57,44.57,1.94l-.31.06c-18.1,2.13-33.4.57-41-5.41-5.07-4-9-11.76-8.69-18.74,10.25,8.75,26.62,11,43.28,8.84h.59c-18.72-.74-32.92-4.54-40-12a23.22,23.22,0,0,1-5.76-20.37c8.8,10.61,25,15,42.1,15.31h0c-18.58-3.79-31.95-9.85-37.66-18.7-4.14-6.42-5.15-13.77-2.4-20.19,7.18,11,23.21,19.51,39.69,22.88l-.7-.22.73.22c-18.41-7-31-16.24-35.23-26.1-3-7-2.47-13.66,1.31-19.19,5.16,12.51,20.37,24,36.31,29.94l.16.07C82.56,169.82,71,158.27,68.33,147.72c-1.86-7.41-.41-14.15,4.25-18.86,3,13.26,17.28,27.53,32.69,36.13l-.65-.44.54.36c-16.4-12.65-26-25.4-27.1-36.64-.71-7.6,1-13.7,6.41-17.64,1.3,14.53,14,30.93,28.39,41.22l-.38-.33.32.27c-13.16-12.95-22.41-27.7-22.54-40.58-.08-7.64,2.56-13.27,8.46-16.47-.55,15.65,10.46,33.4,23.83,45.52-.13-.14-.24-.28-.37-.41-11.69-14-19.33-29.46-18.25-42.19.65-7.61,3.82-13,10-15.58-2,18.18,6.94,35.87,18.49,48.54-1.18-1.51-2.29-3-3.34-4.57,1,1.5,2.11,3,3.28,4.47C122.3,114.74,116.17,98,119.2,85.24c1.77-7.43,6-12.38,12.5-14.1-3.72,9.39-3.66,21.71,2.06,34.5,4.45,10.22,12.26,19.23,18,28-1.31-2.51-3-5.12-4.93-8.11h0c-11.31-19.23-18.39-35.95-10-53,2.7-5.5,9.07-10.67,15.67-13a20.28,20.28,0,0,1,5.73-1.45S152.7,61.64,147.92,72c-3.68,8-6.65,22.9,4.21,41.79,8,13.84,13.26,23,11.37,32.77-2.72,14.12-20.16,16.87-22.55,17.2h-.26v75.54c.08,9.94,3.45,19,8.51,27.12V201.14l8.52,2v74.41a107.19,107.19,0,0,0,8.51,8.41V205.14l8.51,2v85.77c3,2.24,5.89,4.23,8.52,5.93v-89.7l8.51,2V304c2.63,1.46,4.22,2.23,4.22,2.23h.13s1.59-.77,4.22-2.24v-92.8l8.52-2v89.66c2.63-1.71,5.52-3.69,8.51-5.94V207.17l8.52-2V286a109.05,109.05,0,0,0,8.51-8.42V203.16l8.51-2v65.21c5.06-8.07,8.44-17.17,8.5-27.11V163.72h-.26c-2.39-.33-19.84-3.08-22.56-17.2-1.88-9.78,3.42-18.93,11.38-32.77,10.86-18.89,7.88-33.84,4.21-41.79-4.74-10.35-10.26-13.89-10.26-13.89a20.28,20.28,0,0,1,5.73,1.45c6.6,2.38,13,7.55,15.66,13,8.38,17.07,1.31,33.79-10,53v0a89.67,89.67,0,0,0-4.94,8.12c5.74-8.79,13.54-17.8,18-28,5.72-12.79,5.77-25.11,2-34.5,6.49,1.72,10.74,6.67,12.51,14.1,3,12.72-3.1,29.5-13.16,45.28,1.17-1.48,2.24-3,3.29-4.48-1.06,1.53-2.17,3.06-3.36,4.58,11.56-12.67,20.45-30.36,18.5-48.54,6.18,2.62,9.34,8,10,15.58,1.09,12.73-6.55,28.13-18.24,42.18l-.38.42c13.38-12.12,24.39-29.87,23.83-45.52,5.9,3.2,8.55,8.83,8.47,16.47-.14,12.88-9.39,27.63-22.54,40.58l.27-.23-.33.29c14.43-10.29,27.08-26.69,28.39-41.22,5.44,3.94,7.12,10,6.41,17.64-1,11.24-10.7,24-27.11,36.64l.56-.37-.67.45c15.41-8.6,29.72-22.87,32.69-36.13,4.67,4.71,6.11,11.45,4.25,18.86-2.64,10.55-14.22,22.1-31.47,31.92l.15-.07c15.94-5.89,31.15-17.42,36.31-29.94,3.79,5.53,4.34,12.18,1.32,19.19-4.25,9.86-16.83,19.08-35.23,26.1l.7-.21-.67.21c16.56-3.34,32.59-11.8,39.77-22.8,2.75,6.42,1.74,13.77-2.4,20.19-5.72,8.85-19.08,14.91-37.67,18.7h0c17.15-.28,33.31-4.7,42.11-15.31A23.22,23.22,0,0,1,330.91,216c-7.07,7.45-21.27,11.25-40,12h.58c16.66,2.15,33-.09,43.29-8.84.35,7-3.63,14.78-8.7,18.74-7.64,6-22.94,7.54-41,5.41l-.31-.06c16.08,4.63,32.85,4.9,44.57-1.94-.81,6.94-6.21,13.67-11.65,16.54-8.49,4.46-23.78,4-41.81-1.13l1,.34c-.2-.08-.4-.14-.61-.21,14.93,7.22,31.4,10,44.21,5.06-1.91,6.72-8.52,12.83-14.36,14.78-9.38,3.12-23.18,1-41.07-7.88l.29.16-.22-.13c13.39,9.77,29.07,15.32,42.48,13-3.16,6.07-11.44,10.22-15.83,10.89-9.93,1.51-22.25-.1-37.87-15C270.22,300,290.83,302.14,304.71,293l.71-.44.15-.1.12-.1a37,37,0,0,0,8.7-8.15h0A146.77,146.77,0,0,0,343.54,196.18ZM95.82,177.63l.2.1Zm5.38-15.48c.22.16.44.32.67.47C101.64,162.47,101.42,162.31,101.2,162.15Zm25.27-40.23.8,1.26c-.27-.42-.54-.84-.8-1.26Zm34.82,58.93-4.51,2.37.86-5L154,174.66l5-.73,2.26-4.57,2.25,4.57,5,.73-3.64,3.56.86,5Zm16.18,17.3L173,195.79l-4.51,2.36.86-5-3.65-3.55,5-.73,2.25-4.57,2.26,4.57,5,.72-3.64,3.56Zm2.65-14.93.86-5-3.66-3.56,5.05-.73,2.25-4.57,2.26,4.57,5,.73-3.65,3.56.86,5-4.51-2.37Zm20.68,14.93-4.51-2.36-4.51,2.36.86-5L189,189.6l5-.73,2.25-4.57,2.26,4.57,5,.72-3.65,3.56Zm7.16-17.3-4.51,2.37.86-5-3.65-3.56,5-.73,2.25-4.57,2.25,4.57,5,.73-3.64,3.56.86,5Zm15.32,12.28.86,5-4.51-2.36-4.51,2.38.86-5-3.65-3.55,5-.73,2.26-4.57,2.25,4.57,5,.72Zm12.52-9.91-4.51-2.37-4.51,2.37.86-5L224,174.66l5-.73,2.25-4.57,2.26,4.57,5,.73-3.65,3.56Zm30-61.32-.82,1.31Zm25.27,40.25-.67.48Zm5.4,15.46-.24.13Z" transform="translate(8.53 8.03)"/>
        <path class="cls-2" d="M171.46,326.32a40.91,40.91,0,0,0-6.16-9.74c-10.47-12.29-23.4-14.15-23.4-14.15s2.23,9.39,7.71,15.65a57.25,57.25,0,0,1,10,2.66A55.39,55.39,0,0,1,171.46,326.32Z" transform="translate(8.53 8.03)"/>
        <path class="cls-2" d="M233.12,309.32c-3.09-.91-6.22,5.31-7.76,9.83a4,4,0,0,1,2.21,1.1s3.56-5.39,10-4.35a8,8,0,0,1,4.74,2.4c6.58-9,8.13-16.19,8.13-16.19s-2.93-1-5.13,2.49c-1.21,1.89-2.36,7.15-2.36,7.15s1.41-6.54-1.59-7.09c-4.25-.79-6.53,9.92-6.53,9.92S235.55,310.07,233.12,309.32Z" transform="translate(8.53 8.03)"/>
        <path class="cls-2" d="M258.26,321.66c-3.66,1.23-8.73,7-8.73,7s6.31-9.5.76-10.37c-5.84-.92-13.14,11.16-13.14,11.16s4.85-8.65-.4-9.69-10.49,7.55-12.4,11.11c1.12-2.4,2.7-6.92-.69-8-5.6-1.71-8.15,9.37-16.42,14.06a22,22,0,0,1-10.47,2.69,25.78,25.78,0,0,0,15-11.81c.47-.88,1.13-2.41.63-3.11-.38-.52-.75-.6-1.82-.67a6.52,6.52,0,0,0,2.07-.62c2.34-1,4.12-3.14,3.62-4.58-.33-.93-1.32-1.23-2.66-1.14a8.13,8.13,0,0,0,2-.94c2.1-1.22,3.31-2.94,2.43-4.43a2.78,2.78,0,0,0-2.73-.7,7.69,7.69,0,0,0,2.11-2.56c1.06-1.9,1.25-3.77-.87-4.65s-3.47.66-4.17,2.43a7.94,7.94,0,0,0-.48,3.34,2.49,2.49,0,0,0-2.46-1.3c-1.49.39-1.87,2.13-1.67,3.93a13.18,13.18,0,0,0,.63,2.78c-.67-.65-1.71-1.37-2.73-1-1.92.68-1.34,3.68-1,5.12a8.7,8.7,0,0,0,.8,2.15h0a1.58,1.58,0,0,0-1.47-.73c-.81.07-1.41.86-1.71,1.85-.66,2.8-.66,5.73-1.21,7.51-1.74,5.72-4.15,8.48-4.77,9.12H196c-.62-.61-3.07-3.27-4.9-9.19-.59-1.91-1.33-6.12-2.15-9a26.92,26.92,0,0,0-15.36-17.28s-2.09,12.69,6,23.77c6.5,8.87,13.81,11.19,15.91,11.7a39.41,39.41,0,0,1-11.91-2.28c-7.93-2.7-10.35-6.8-24.61-12.44-17.86-7.07-35.79-2.66-38.18-2A147.55,147.55,0,0,0,269.2,324.2C267.94,322.88,264.78,319.44,258.26,321.66Z" transform="translate(8.53 8.03)"/>
        <path class="cls-2" d="M136.12,316c-16.26-10.22-34.7-9.16-37.17-9a140.3,140.3,0,0,0,17.2,13,65.61,65.61,0,0,1,21.22-3.22Z" transform="translate(8.53 8.03)"/>
        <path class="cls-2" d="M285.87,306.85c-2.28,1.29-6.18,6.42-6.69,7.19.56-.86,4.53-7.17,1.32-9.15-4.68-2.88-13.92,10.39-13.92,10.39s4.49-6.5,1.63-8.62c-3.55-2.63-12,5.66-14.41,8.74a3.73,3.73,0,0,1,2.62,3,13.61,13.61,0,0,1,11.27-.37,11.69,11.69,0,0,1,5.08,4.12,148,148,0,0,0,20.55-15.08C292.64,306.4,290.33,304.32,285.87,306.85Z" transform="translate(8.53 8.03)"/>
      </g>
      <path class="cls-2" d="M196.12,392.24C88,392.24,0,304.24,0,196.12S88,0,196.12,0,392.24,88,392.24,196.12,304.26,392.24,196.12,392.24Zm0-389.66C89.41,2.58,2.59,89.4,2.59,196.12S89.41,389.65,196.12,389.65s193.53-86.82,193.53-193.53S302.83,2.58,196.12,2.58Z" transform="translate(8.53 8.03)"/>
      <g>
        <g>
          <g>
            <path class="cls-2" d="M42.57,246.07c.88,2.64.3,3.26-2.75,4.28l-5.25,1.72-.37-1.13c-.86-2.12-1.49-4.54,2-5.68l-.27-.8-7.81,2.61.26.77c3-.8,4.08.8,4.94,3.38l.38,1.13L29,253.91c-2.69.9-3.74,1.13-4.58-1.37-1.43-4.29-.76-5.67,1.7-9.18l-.66-.51-4.15,3.4,4.84,14.5.91-.3c-.73-2.2-.12-2.83,2.9-3.84l10.74-3.54c3-1,3.89-.88,4.62,1.32l.91-.3-2.78-8.32Z" transform="translate(8.53 8.03)"/>
            <path class="cls-2" d="M23.92,236.52l11.13-2.23c3.15-.64,4-.39,4.41,1.86l.94-.19-3-15.22-5.82-1-.14.74c4.14,2.12,5.47,2.71,6.4,7.34.52,2.58,0,3-2.29,3.47L29,232.6l-.24-1.16c-.59-2.21-.91-4.69,2.73-5.39l-.16-.82-8.16,1.61.16.8c3.1-.42,4,1.3,4.49,4L28,232.8l-5.31,1.07c-2.78.56-3.27.48-3.85-2.42-.84-4.17,0-5.31,2.82-8.48l-.57-.62-4.46,3,3,14.84.94-.18C20.12,237.69,20.8,237.14,23.92,236.52Z" transform="translate(8.53 8.03)"/>
            <path class="cls-2" d="M20,213.3l11.33-.63c3.21-.18,4,.18,4.11,2.5l1-.06L36,207.19c-.37-6.76-4.48-11.32-11.54-10.93a9.66,9.66,0,0,0-8,4.33,12,12,0,0,0-1.66,7.78l.44,7.92,1,0C16.06,213.93,16.82,213.48,20,213.3Zm4.71-13.72c5.18-.29,9.94,1.36,10.26,7.2.14,2.37-.68,2.88-3.77,3l-11.65.64c-3,.2-3.69-.11-3.83-2.59-.33-5.87,3.73-8,9-8.25Z" transform="translate(8.53 8.03)"/>
            <path class="cls-2" d="M19.37,188.77l11.32.86c3.2.24,3.92.7,3.75,3l1,.07,1.18-15.47-5.33-2.56-.34.67c3.42,3.17,4.54,4.09,4.19,8.8-.2,2.63-.8,2.9-3.14,2.73l-6.68-.51.09-1.18c0-2.3.39-4.77,4.09-4.46l.06-.84-8.29-.63-.15.82c3.11.44,3.46,2.33,3.25,5l-.09,1.19-5.4-.41c-2.83-.22-3.28-.43-3.06-3.37.33-4.25,1.44-5.12,5-7.41l-.38-.75L15.35,176l-1.1,15.1,1,.07C15.38,188.87,16.19,188.53,19.37,188.77Z" transform="translate(8.53 8.03)"/>
            <path class="cls-2" d="M22,165.58,33,167.89c3.15.66,3.8,1.21,3.34,3.45l.93.2L39,163.46l-.94-.2c-.46,2.24-1.28,2.49-4.43,1.83L28.31,164l.42-2,11.33-3.7,1-4.7-.94-.2c-.39,2.32-1.38,2.38-3.41,3.05l-7.59,2.37c.23-2.79-1.18-5.81-4.07-6.42-4.06-.84-6.08,3.17-6.77,6.49l-1.75,8.33.94.19C18.06,164.62,19.67,165.07,22,165.58Zm-2.85-6.07c.53-2.55,2.5-4.74,5.3-4.15,3.26.68,4,4.13,3.25,6.95l-.31,1.47L21.7,162.6C19.58,162.15,18.63,161.9,19.12,159.51Z" transform="translate(8.53 8.03)"/>
            <path class="cls-2" d="M40.59,151.64l.9.32L44,145l-.9-.33c-.4,1.12-1.11,2.5-2.5,2a21.85,21.85,0,0,1-3.32-2.42l-.91-.73,2.5-6.95,3.75.09a6.83,6.83,0,0,1,1.91.16c1.42.51.53,2.13.28,3.08l.9.33,2.88-8-.9-.32a2.89,2.89,0,0,1-1.43,1.49c-1,.45-3.57.35-4.76.32l-16.61-.36-.24,2.81,13.1,10.3C39.41,147.74,41.41,149.29,40.59,151.64ZM27.22,136.26l10.26.23-2.2,6.13Z" transform="translate(8.53 8.03)"/>
            <path class="cls-2" d="M36.31,120.57l10.13,5.13c2.87,1.45,3.37,2.13,2.29,4.25l.86.43L56.37,117l-3.85-4.19-.67.54c2,3.17,2.58,5.36.82,8.82-1.29,2.56-2.15,2.39-4.42,1.24L37.61,118c-2.84-1.43-3.37-2.13-2.29-4.27l-.85-.43-3.79,7.49.85.43C32.6,119.07,33.47,119.13,36.31,120.57Z" transform="translate(8.53 8.03)"/>
          </g>
          <g>
            <path class="cls-2" d="M58.39,85.44,67,92.79c2.44,2.09,2.75,2.89,1.26,4.62l.72.62,5.38-6.26-.73-.62c-1.49,1.74-2.32,1.55-4.76-.54l-4.12-3.54,1.34-1.56,11.71,2.22,3.13-3.65-.72-.62c-1.46,1.83-2.36,1.41-4.46,1L67.93,82.9c1.54-2.34,1.76-5.66-.48-7.58-3.15-2.7-6.85-.16-9.06,2.42L52.85,84.2l.73.62C55.43,82.71,56.61,83.91,58.39,85.44Zm.43-6.69c1.69-2,4.47-3,6.65-1.09C68,79.83,67,83.23,65,85.32l-1,1.14-4.4-3.77C57.94,81.28,57.23,80.6,58.82,78.75Z" transform="translate(8.53 8.03)"/>
            <path class="cls-2" d="M73.83,68.5,81.39,77c2.15,2.4,2.35,3.23.64,4.75l.64.72L94.24,72.07l-2.07-5.53-.72.25c.28,4.65.44,6.09-3.07,9.24-2,1.75-2.59,1.54-4.15-.21l-4.46-5,.88-.79c1.61-1.63,3.58-3.16,6-.38l.63-.56L81.74,62.9l-.61.54C83.06,65.9,82,67.5,80,69.32l-.88.79-3.61-4c-1.89-2.11-2.07-2.57.13-4.54,3.17-2.84,4.58-2.7,8.74-1.87l.25-.81-4.82-2.34L68.51,66.65l.63.71C70.88,65.82,71.7,66.13,73.83,68.5Z" transform="translate(8.53 8.03)"/>
            <path class="cls-2" d="M106.24,57.78a4,4,0,0,1-1.11,5.55l-.18.11c-2.48,1.71-6.19.94-9,0l-.49.82,5,3.44a2.82,2.82,0,0,1,1-1.7c1-.66,2.72-.86,4.22-1.9a6.15,6.15,0,0,0,2-8.45l-.21-.31c-2.62-3.78-6.25-2.46-9.89-1.31-2,.65-4.78,1.34-6.22-.73a3.8,3.8,0,0,1,.91-5.3l.09-.06c2.38-1.65,5.64-.81,8.11.26l.46-.81-4.47-3.1a1.89,1.89,0,0,1-.85,1.26,4.49,4.49,0,0,1-1.49.6,6,6,0,0,0-2.18.92c-3,2-3.76,5.35-1.68,8.35C94.63,61.82,102.42,52.26,106.24,57.78Z" transform="translate(8.53 8.03)"/>
            <path class="cls-2" d="M108.19,42.87l5.29,10c1.5,2.84,1.49,3.7-.53,4.76l.44.85,13.73-7.2-.67-5.87-.75.07c-.86,4.58-1,6-5.22,8.22-2.33,1.23-2.88.87-4-1.21l-3.12-5.91,1-.56c2-1.19,4.24-2.2,6,1.09l.74-.39-3.88-7.35-.71.38c1.28,2.86-.13,4.16-2.54,5.43l-1,.55-2.53-4.79c-1.32-2.51-1.38-3,1.23-4.38,3.76-2,5.1-1.5,8.93.3l.44-.72-4.1-3.43-13.4,7.06.45.84C106,39.55,106.7,40.07,108.19,42.87Z" transform="translate(8.53 8.03)"/>
            <path class="cls-2" d="M129.18,32.74l3.94,10.59c1.12,3,1,3.86-1.14,4.66l.33.89L140.05,46l-.33-.89c-2.15.79-2.79.23-3.91-2.78l-1.88-5.08,1.92-.72L145,44.17l4.5-1.67-.33-.9c-2.17.9-2.74.09-4.39-1.27l-6-5.14c2.49-1.29,4.29-4.09,3.26-6.86-1.44-3.88-5.92-3.46-9.09-2.28l-8,3,.33.9C127.92,28.92,128.37,30.55,129.18,32.74Zm3.63-5.63c2.44-.91,5.34-.41,6.34,2.28,1.16,3.12-1.34,5.62-4.15,6.45l-1.42.52-2-5.43c-.77-2-1.05-3,1.23-3.86Z" transform="translate(8.53 8.03)"/>
            <path class="cls-2" d="M146.77,22.79c.82.32,1.28,1.1,2,2.24l9.79,15.35.93-.22,1.78-16.26c.1-1.22.29-3.65,1-4.63a3.52,3.52,0,0,1,2-1.07l-.23-.93L157,19l.22.93c1-.06,2.36-.59,2.69.79a16.61,16.61,0,0,1-.09,3.86l-1.13,11L152,25a9.81,9.81,0,0,1-1.26-2.29c-.29-1.21,1.13-1.49,2.06-1.72l-.22-.93-8.61,2,.22.93A5,5,0,0,1,146.77,22.79Z" transform="translate(8.53 8.03)"/>
            <path class="cls-2" d="M171.12,21.33l1.23,11.28c.34,3.2,0,4-2.25,4.24l.1.95,15.43-1.68,1.53-5.7-.72-.21c-2.48,3.94-3.19,5.21-7.88,5.72-2.62.28-3-.26-3.25-2.59l-.72-6.65,1.18-.13c2.25-.39,4.75-.48,5.12,3.2l.83-.09-.89-8.26-.81.09c.14,3.13-1.65,3.82-4.36,4.11l-1.18.13-.58-5.38c-.31-2.82-.19-3.3,2.75-3.62,4.23-.46,5.29.47,8.19,3.57l.68-.51L183,15.07l-15.06,1.64.11,1C170.29,17.43,170.78,18.16,171.12,21.33Z" transform="translate(8.53 8.03)"/>
          </g>
          <g>
            <path class="cls-2" d="M228.46,33.22c.55-3.75-3.36-5.82-6.53-6.37v-.09c3.11,0,6.35-.53,6.85-4.17.71-5-5.76-5.79-9.31-6.31l-6.22-.92-.14,1c2.27.33,2.52,1.16,2.06,4.31L213.52,31.9c-.47,3.18-1,3.87-3.21,3.54l-.14.94,9.11,1.34C222.87,38.2,227.81,37.66,228.46,33.22ZM218.12,20.07c.29-2,.78-2.9,3-2.57,2.61.38,5,1.88,4.58,4.86-.55,3.78-3.62,3.94-6.74,3.49l-1.66-.25Zm-2,13.27,1-6.79,1.57.23c3.56.52,7,1.79,6.37,6.08-.52,3.53-3.54,4.2-6.64,3.74-2.14-.34-2.5-1.27-2.21-3.27Z" transform="translate(8.53 8.03)"/>
            <path class="cls-2" d="M237.58,40.48c-1.15-.33-2.56-.95-2.15-2.37a19.49,19.49,0,0,1,2.2-3.46l.67-1,7.09,2,.15,3.75a6.86,6.86,0,0,1,0,1.92c-.41,1.45-2.09.66-3.06.47l-.26.92,8.18,2.36.26-.91a2.86,2.86,0,0,1-1.57-1.33c-.52-1-.58-3.54-.63-4.73l-.69-16.6L245,21.44l-9.45,13.73c-1.2,1.73-2.61,3.82-5,3.16l-.26.92,7.12,2ZM245,24.07l.41,10.25-6.25-1.78Z" transform="translate(8.53 8.03)"/>
            <path class="cls-2" d="M259.49,48.07h0c-2.14-1-2.17-1.82-.84-4.74l5.27-11.57,4.14,21.31.89.41,6.74-14.81c1.32-2.9,2-3.45,4.1-2.5l.39-.87-6.06-2.82-.4.87c2.11,1,2.13,1.83.81,4.73L270,48l-3.66-19-4.59-2.08-.39.86c2.11,1,2.15,1.84.83,4.74l-4.7,10.34c-1.33,2.92-2,3.44-4.12,2.48l-.4.87,6.14,2.8Z" transform="translate(8.53 8.03)"/>
            <path class="cls-2" d="M285.52,44.07l-6.12,9.56c-1.73,2.71-2.46,3.14-4.46,1.86l-.51.81,7,4.48.51-.81c-1.95-1.25-1.86-2.09-.13-4.79l1.88-2.93,3.75-.86.13,9a4.49,4.49,0,0,1-.17,2.09c-.51.81-1.73-.14-2.46-.61l-.51.81,7.51,4.8.51-.8c-2.13-1.13-2-3.6-2.05-5.71l-.11-10.25,3.62-.82c2.55-.6,5.66-1.49,8,0l.51-.81-6.78-4.34-.51.81c.7.45,1.92,1.23,1.3,2.21-.39.61-2,.87-2.65,1l-9.23,2.07,3.34-5.22c1.72-2.69,2.46-3.14,4.41-1.89l.51-.81-7-4.48-.51.81C287.34,40.5,287.23,41.36,285.52,44.07Z" transform="translate(8.53 8.03)"/>
          </g>
          <g>
            <path class="cls-2" d="M326.51,86c4-3.79,5.79-10,1.64-14.43s-10.41-3.16-14.41.61-5.62,9.89-1.54,14.29S322.42,89.85,326.51,86ZM316.12,74.52c2.72-2.56,8.06-5.79,11.36-2.3s-.33,8.62-3.07,11.2-8.08,6-11.49,2.39C309.64,82.36,313.49,77,316.12,74.52Z" transform="translate(8.53 8.03)"/>
            <path class="cls-2" d="M322,95.46l-.78.56,5.14,7.11.77-.55c-1.62-2.26-1.25-3,1.36-4.91l4.48-3.24.69,1c1.46,1.77,2.78,3.89-.24,6l.49.68,6.73-4.86-.47-.66c-2.65,1.67-4.14.46-5.73-1.75l-.69-1,4-2.88c2.3-1.66,3.23-2.19,4.78,0,2.64,3.66,2.41,5.18,1.11,9.26l.78.29L347.33,96l-8.95-12.39-.77.56c1.35,1.87.95,2.66-1.63,4.52l-9.2,6.65C324.12,97.23,323.31,97.34,322,95.46Z" transform="translate(8.53 8.03)"/>
          </g>
          <g>
            <path class="cls-2" d="M341.12,129.26c1.63,3.52,5.24,5,9,5l.06-.7c-2.88-.29-5.69-1.25-7-4.06-2.09-4.49,2.13-8.81,5.91-10.57,3.52-1.64,8.8-2.59,10.82,1.77,1.15,2.47-.05,6.13-1.26,8.41l.62.51,3.94-4a4.07,4.07,0,0,1-1.38-1.53,5.38,5.38,0,0,1-.39-1.86,6.72,6.72,0,0,0-.59-2.37c-1.24-2.66-4-4-6.71-4.39a13.51,13.51,0,0,0-7.76,1C341.43,118.81,338.67,124.07,341.12,129.26Z" transform="translate(8.53 8.03)"/>
            <path class="cls-2" d="M362.54,137.62l-10.87,3.24c-3.08.92-3.92.75-4.57-1.44l-.92.27,2.36,7.91.91-.28c-.65-2.19-.05-2.79,3-3.71l5.08-1.51,2.57,8.63L355,152.24c-3.08.92-3.91.77-4.57-1.42l-.91.27,2.36,7.94.92-.27c-.68-2.28-.07-2.85,3-3.77l10.88-3.24c3.05-.91,3.91-.77,4.59,1.5l.91-.27-2.32-7.91-.92.28c.66,2.19,0,2.77-3,3.68l-4.52,1.35-2.57-8.63,4.52-1.35c3.05-.91,3.92-.74,4.57,1.45l.92-.27-2.36-7.91-.91.27C366.23,136.07,365.6,136.71,362.54,137.62Z" transform="translate(8.53 8.03)"/>
            <path class="cls-2" d="M369.12,162.76,358,164.84c-3.16.59-4,.33-4.4-2l-.94.17,1.53,8.2,1-.19c-.43-2.31.23-2.84,3.39-3.43l11.16-2.08c3.14-.59,4-.33,4.41,2l.94-.18-1.53-8.2-.94.18C373,161.63,372.29,162.18,369.12,162.76Z" transform="translate(8.53 8.03)"/>
            <path class="cls-2" d="M372.38,176.35a13.56,13.56,0,0,0-7.63-1.76c-5.4.42-9.83,4.39-9.39,10.08.31,3.87,3.16,6.55,6.68,7.85l.3-.64c-2.59-1.28-4.89-3.16-5.13-6.25-.38-4.94,5.08-7.51,9.24-7.83,3.87-.31,9.14.65,9.51,5.44.21,2.72-2.2,5.72-4.12,7.44l.4.7,5.07-2.34a4.32,4.32,0,0,1-.75-1.92,5.72,5.72,0,0,1,.28-1.88,6.44,6.44,0,0,0,.28-2.43C376.89,179.89,374.8,177.67,372.38,176.35Z" transform="translate(8.53 8.03)"/>
            <path class="cls-2" d="M355.76,206.9l-.45,8.5.95,0a2.86,2.86,0,0,1,.94-1.83c.88-.74,3.32-1.36,4.47-1.68l16-4.42-.55-2.75-15.51-6.12c-2-.77-4.32-1.68-4.21-4.16l-1-.06-.39,7.41.95,0c.06-1.19.35-2.71,1.82-2.63a19.8,19.8,0,0,1,3.87,1.37l1.08.43-.39,7.38-3.62,1a6.77,6.77,0,0,1-1.88.39c-1.5-.08-1.12-1.88-1.15-2.87Zm9.31-5.3,9.54,3.79-9.89,2.68Z" transform="translate(8.53 8.03)"/>
            <path class="cls-2" d="M364.91,219.07c-5.6-1.07-10.87,1.33-12,7.31-.46,2.38.26,4.32-.11,6.25a4,4,0,0,1-.46,1.16l4.21.8c2.08.4,3.56.68,3.17,3.15l.94.18,1.55-8.11-.93-.18c-.45,2.33-.87,3.11-3.34,2.63-2.93-.56-4.83-1.87-4.21-5.11.88-4.55,6.5-5.59,10.31-4.86s10.24,3.47,9.29,8.42c-.56,2.93-3.33,4.63-5.88,5.62l.21.89,5.71-.87a4.66,4.66,0,0,1-.25-2.28c.2-1,.95-2.15,1.25-3.74C375.49,224.51,370.12,220.07,364.91,219.07Z" transform="translate(8.53 8.03)"/>
            <path class="cls-2" d="M360.62,242.3c-5.23-1.79-11.41-.38-13.36,5.32s1.79,10.61,7.1,12.43,11.57.44,13.53-5.28S365.82,244.07,360.62,242.3ZM367,254.46c-1.56,4.55-7.77,3.74-11.33,2.52s-9.11-4.34-7.49-9.06c1.54-4.49,8.08-3.59,11.48-2.43S368.54,249.91,367,254.46Z" transform="translate(8.53 8.03)"/>
          </g>
        </g>
        <g>
          <g>
            <path class="cls-2" d="M74.12,315.07c-.93-1.82-2-4.35-.25-6a3.67,3.67,0,0,1,5.18,0l.07.08c1.94,2,1.63,5.25,1,7.77l.85.31,2.26-4.73a1.88,1.88,0,0,1-1.33-.62,4.57,4.57,0,0,1-.8-1.32,5.77,5.77,0,0,0-1.21-1.94c-2.4-2.5-5.67-2.76-8.21-.33-5.4,5.19,4.9,11.15.22,15.64a3.9,3.9,0,0,1-5.51-.29l-.07-.08c-2-2.09-1.84-5.75-1.39-8.54l-.87-.34L61.55,320a2.69,2.69,0,0,1,1.77.67c.77.8,1.23,2.45,2.45,3.72a5.93,5.93,0,0,0,8.36.63l.27-.24C77.62,321.64,75.81,318.38,74.12,315.07Z" transform="translate(8.53 8.03)"/>
            <path class="cls-2" d="M95.55,329.69l1.59-4.91L86,315.35l-.6.71c1.69,1.42,1.5,2.25-.48,4.6l-7.06,8.41c-2,2.37-2.77,2.67-4.46,1.25l-.59.7,11.44,9.67,5-2.73-.33-.64c-4.41.89-5.77,1.24-9.24-1.7-2-1.64-1.82-2.27-.36-4l4.16-4.93.88.74c1.77,1.31,3.5,3,1.17,5.7l.62.53,5.17-6.13-.59-.5c-2.1,2.18-3.77,1.39-5.78-.31l-.87-.74,3.37-4c1.76-2.09,2.18-2.32,4.36-.49,3.13,2.65,3.19,4,3,8.1Z" transform="translate(8.53 8.03)"/>
            <path class="cls-2" d="M112.61,337.26a3.28,3.28,0,0,1,2,.7l.51-.77-5.78-3.86-.51.76c.69.67,2,1.28,1.2,2.42a14.92,14.92,0,0,1-2.79,2.47l-8.49,6.38,3.07-11.64a8.92,8.92,0,0,1,.8-2.4c.66-1,1.79-.17,2.56.34l.51-.77-7.08-4.73-.51.77a4.89,4.89,0,0,1,1.8,1.67c.32.79.06,1.62-.3,2.86l-4.42,17,.76.51,12.66-9.41C109.58,338.83,111.42,337.37,112.61,337.26Z" transform="translate(8.53 8.03)"/>
            <path class="cls-2" d="M113.71,358.28c-2.26-1.16-2.28-1.8-1.24-3.81l2.94-5.74,1,.52c2,.88,4.09,2.13,2.43,5.3l.72.37,3.67-7.13-.7-.36c-1.55,2.59-3.36,2.2-5.69,1l-1-.52,2.38-4.65c1.25-2.43,1.61-2.76,4.14-1.46,3.65,1.88,4,3.2,4.71,7.23l.81-.06.44-5.14-13-6.67-.42.82c2,1,2,1.85.56,4.59l-5,9.74c-1.42,2.76-2.1,3.22-4.06,2.22l-.42.82,13.31,6.84,4.27-3.78-.47-.56C119,359.71,117.76,360.36,113.71,358.28Z" transform="translate(8.53 8.03)"/>
            <path class="cls-2" d="M148.78,352.83l.33-.86L143,349.7l-.32.87c2.1.78,2.17,1.61,1.1,4.49l-3.69,9.81-4.81-18-4.55-1.7-.33.87c2.1.77,2.2,1.62,1.13,4.5l-3.82,10.26c-1.09,2.9-1.71,3.44-3.8,2.66l-.32.87,6.1,2.27.32-.86h0c-2.12-.79-2.2-1.6-1.12-4.51l4.28-11.48,5.39,20.16.89.33L145,355.53C146.12,352.63,146.72,352.07,148.78,352.83Z" transform="translate(8.53 8.03)"/>
            <path class="cls-2" d="M166.85,361.53l-.73-5.46-15.66-3.78-3.17,4.55.66.48c1.72-2,4.49-3.6,7.26-2.94,1.85.45,1.09,2,.76,3.38l-2.7,11.31c-.72,3-1.25,3.64-3.72,3l-.22.89,8.37,2,.22-.9c-2.5-.6-2.69-1.4-2-4.41l2.74-11.35c.33-1.36.38-3.1,2.22-2.66,2.71.71,4.58,3.32,5.18,5.94Z" transform="translate(8.53 8.03)"/>
            <path class="cls-2" d="M179.27,358.68c2.19.25,2.47,1,2.12,4.09l-.51,4.53-8.63-1,.51-4.53c.35-3,.82-3.76,3-3.51l.11-.91-7.91-.9-.11.91c2.2.25,2.5,1.05,2.15,4.1l-1.23,10.88c-.35,3.08-.82,3.76-3,3.51l-.1.91,7.91.9.1-.91c-2.19-.25-2.5-1-2.15-4.1l.58-5.08,8.63,1-.58,5.08c-.35,3.08-.79,3.76-3,3.51l-.11.92,7.94.9.13-.91c-2.28-.26-2.56-1-2.21-4.11l1.21-10.89c.35-3.05.79-3.76,3.07-3.5l.1-.91-7.94-.91Z" transform="translate(8.53 8.03)"/>
          </g>
          <g>
            <path class="cls-2" d="M220,359a11.55,11.55,0,0,0-7.59-1.16l-7.6.87.1.91c2.22-.25,2.69.45,3,3.51L209.16,374c.35,3.08.05,3.84-2.18,4.1l.11.91,7.61-.86c6.49-.74,10.65-4.95,9.88-11.73A9.29,9.29,0,0,0,220,359Zm-4.89,18.19c-2.28.26-2.82-.49-3.13-3.47l-1.27-11.18c-.36-2.91-.1-3.56,2.29-3.83,5.66-.65,7.89,3.15,8.47,8.2S220.68,376.51,215.12,377.15Z" transform="translate(8.53 8.03)"/>
            <path class="cls-2" d="M233.53,370.34l-2.22-10.72c-.62-3-.39-3.83,1.83-4.29l-.19-.9-7.83,1.64.18.9c2.19-.45,2.72.21,3.35,3.22l2.21,10.72c.62,3,.39,3.83-1.8,4.28l.19.9,7.87-1.63-.18-.9C234.68,374,234.12,373.38,233.53,370.34Z" transform="translate(8.53 8.03)"/>
            <path class="cls-2" d="M244,360.07c-2,0-4.78-.23-5.46-2.57a3.65,3.65,0,0,1,2.41-4.57l.11,0c2.68-.79,5.41,1,7.34,2.71l.67-.6-3.15-4.2a1.82,1.82,0,0,1-1.17.89,4.19,4.19,0,0,1-1.54.1,5.67,5.67,0,0,0-2.28.17c-3.32,1-5.07,3.76-4.08,7.13,2.1,7.19,12.14.82,14,7a3.9,3.9,0,0,1-2.78,4.75l-.13,0c-2.79.82-5.94-1-8.21-2.71l-.7.61,3.49,4.65a2.62,2.62,0,0,1,1.41-1.25c1.07-.32,2.74,0,4.43-.46a5.91,5.91,0,0,0,4.43-7.09c0-.12-.06-.25-.1-.37C251.41,360.07,247.68,360.12,244,360.07Z" transform="translate(8.53 8.03)"/>
            <path class="cls-2" d="M264.58,360.56l-4.46-10.8c-.53-1.29-1.51-2.73.25-3.45,2.6-1,5.64,0,7.67,1.77l.53-.55-3.77-4-14.92,6.12.11,5.55h.81c.21-2.65,1.53-5.55,4.16-6.63,1.76-.72,2.07,1,2.6,2.29l4.44,10.8c1.17,2.87,1.11,3.68-1.24,4.64l.35.86,8-3.27-.35-.85C266.37,364,265.76,363.43,264.58,360.56Z" transform="translate(8.53 8.03)"/>
            <path class="cls-2" d="M287.22,350.57l-6.5-4c2.19-1.59,3.51-4.52,2.14-7-1.93-3.5-6.14-2.46-9-.89l-7.19,4,.44.81c2.4-1.32,3.06.17,4.15,2.15l5.25,9.54c1.49,2.72,1.5,3.54-.43,4.61l.44.81,7-3.84-.45-.81c-1.93,1.06-2.62.62-4.12-2.1l-2.52-4.58,1.74-.95,9.83,6,4.06-2.23-.45-.81C289.65,352.33,289,351.64,287.22,350.57Zm-10-2.9-1.27.71-2.69-4.9c-1-1.83-1.42-2.69.63-3.82,2.21-1.22,5-1.15,6.38,1.27,1.57,2.81-.46,5.56-3,6.74Z" transform="translate(8.53 8.03)"/>
            <path class="cls-2" d="M295.71,343.59l-6.1-9.09c-1.71-2.55-1.81-3.39.07-4.65l-.56-.78-6.68,4.48.52.77c1.85-1.25,2.6-.84,4.31,1.71l6.1,9.1c1.73,2.57,1.81,3.39,0,4.64l.51.76,6.68-4.48-.51-.77C298.17,346.55,297.44,346.17,295.71,343.59Z" transform="translate(8.53 8.03)"/>
            <path class="cls-2" d="M312.56,329.28c.4,2.76.15,5.62-2.18,7.49-3.72,3-8.74.06-11.27-3.08-2.35-2.91-4.46-7.63-.85-10.54,2-1.65,5.75-1.37,8.17-.77l.33-.7-4.64-2.76a4.12,4.12,0,0,1-1.11,1.65,5.76,5.76,0,0,1-1.66.79,6.33,6.33,0,0,0-2.08,1.11c-2.2,1.77-2.83,4.64-2.56,7.29a13.1,13.1,0,0,0,2.77,7c3.27,4.06,8.85,5.42,13.14,2,2.91-2.35,3.49-6.08,2.6-9.6Z" transform="translate(8.53 8.03)"/>
            <path class="cls-2" d="M323.22,320.37l-8.33-8.19c-1-1-2.47-1.91-1.14-3.27,2-2,5.19-2.22,7.75-1.39l.27-.71-5.06-2.23-11.29,11.49,2.28,5.06.74-.32c-.85-2.53-.78-5.71,1.22-7.74,1.33-1.36,2.29.1,3.29,1.08l8.33,8.18c2.21,2.17,2.47,2.94.69,4.75l.66.65,6-6.14-.66-.65C326.2,322.79,325.43,322.54,323.22,320.37Z" transform="translate(8.53 8.03)"/>
          </g>
        </g>
        <polygon class="cls-2" points="356.36 299.73 351.85 297.36 347.35 299.73 348.21 294.7 344.56 291.15 349.6 290.42 351.85 285.85 354.11 290.42 359.15 291.14 355.5 294.7 356.36 299.73"/>
        <polygon class="cls-2" points="54.92 294.7 51.27 291.14 56.32 290.42 58.58 285.85 60.83 290.42 65.87 291.15 62.22 294.7 63.08 299.73 58.57 297.36 54.06 299.73 54.92 294.7"/>
      </g>
    </g>
  </g>
</svg>
